<svg xmlns="http://www.w3.org/2000/svg" viewBox="0 0 172 18"><g fill-rule="nonzero" fill="none"><path d="M12.464 5.692c1.261 0 2.27.41 3.025 1.232.755.821 1.133 1.921 1.133 3.3V17h-2.838v-6.578c0-.66-.161-1.173-.484-1.54-.323-.367-.777-.55-1.364-.55-.645 0-1.148.213-1.507.638-.36.425-.539 1.041-.539 1.848V17H7.052v-6.578c0-.66-.161-1.173-.484-1.54-.323-.367-.777-.55-1.364-.55-.63 0-1.133.213-1.507.638-.374.425-.561 1.041-.561 1.848V17H.298V6h2.838v1.166c.66-.983 1.68-1.474 3.058-1.474 1.35 0 2.347.528 2.992 1.584.733-1.056 1.826-1.584 3.278-1.584zm8.776 6.974c.381 1.379 1.415 2.068 3.102 2.068 1.085 0 1.907-.367 2.464-1.1l2.288 1.32c-1.085 1.57-2.684 2.354-4.796 2.354-1.819 0-3.278-.55-4.378-1.65-1.1-1.1-1.65-2.486-1.65-4.158 0-1.657.543-3.04 1.628-4.147 1.085-1.107 2.479-1.661 4.18-1.661 1.613 0 2.944.557 3.993 1.672 1.049 1.115 1.573 2.493 1.573 4.136 0 .367-.037.755-.11 1.166H21.24zm-.044-2.2h5.61c-.161-.748-.495-1.305-1.001-1.672a2.869 2.869 0 00-1.727-.55c-.763 0-1.393.194-1.892.583-.499.389-.829.935-.99 1.639zM37.54 5.692c1.203 0 2.196.403 2.981 1.21.785.807 1.177 1.921 1.177 3.344V17H38.86v-6.402c0-.733-.198-1.294-.594-1.683-.396-.389-.924-.583-1.584-.583-.733 0-1.32.227-1.76.682-.44.455-.66 1.137-.66 2.046V17h-2.838V6h2.838v1.232c.69-1.027 1.782-1.54 3.278-1.54zm12.67 3.036h-2.486v4.576c0 .381.095.66.286.836.19.176.47.275.836.297.367.022.821.018 1.364-.011V17c-1.95.22-3.326.037-4.125-.55-.8-.587-1.199-1.635-1.199-3.146V8.728h-1.914V6h1.914V3.778l2.838-.858V6h2.486v2.728zm3.21-4.048a1.67 1.67 0 01-1.221-.517 1.67 1.67 0 01-.517-1.221c0-.47.172-.88.517-1.232.345-.352.752-.528 1.221-.528.484 0 .898.176 1.243.528.345.352.517.763.517 1.232 0 .47-.172.876-.517 1.221a1.695 1.695 0 01-1.243.517zM52.012 17V6h2.838v11h-2.838zm14.606-1.364c-1.13 1.115-2.508 1.672-4.136 1.672-1.628 0-3.003-.561-4.125-1.683-1.122-1.122-1.683-2.497-1.683-4.125 0-1.628.561-3.003 1.683-4.125 1.122-1.122 2.497-1.683 4.125-1.683 1.628 0 3.007.561 4.136 1.683 1.13 1.122 1.694 2.497 1.694 4.125 0 1.628-.565 3.007-1.694 4.136zm-6.27-1.958c.572.572 1.283.858 2.134.858.85 0 1.562-.286 2.134-.858.572-.572.858-1.298.858-2.178 0-.88-.286-1.606-.858-2.178-.572-.572-1.283-.858-2.134-.858-.85 0-1.558.286-2.123.858-.565.572-.847 1.298-.847 2.178 0 .88.279 1.606.836 2.178zM76.23 5.692c1.203 0 2.196.403 2.981 1.21.785.807 1.177 1.921 1.177 3.344V17H77.55v-6.402c0-.733-.198-1.294-.594-1.683-.396-.389-.924-.583-1.584-.583-.733 0-1.32.227-1.76.682-.44.455-.66 1.137-.66 2.046V17h-2.838V6h2.838v1.232c.69-1.027 1.782-1.54 3.278-1.54zm8.996 3.432c0 .293.194.532.583.715.389.183.862.345 1.419.484.557.14 1.115.315 1.672.528.557.213 1.03.568 1.419 1.067s.583 1.122.583 1.87c0 1.13-.422 1.998-1.265 2.607-.843.609-1.896.913-3.157.913-2.259 0-3.799-.873-4.62-2.618l2.464-1.386c.323.953 1.041 1.43 2.156 1.43 1.012 0 1.518-.315 1.518-.946 0-.293-.194-.532-.583-.715a8.32 8.32 0 00-1.419-.495 14.836 14.836 0 01-1.672-.55 3.433 3.433 0 01-1.419-1.045c-.389-.477-.583-1.074-.583-1.793 0-1.085.4-1.94 1.199-2.563.8-.623 1.793-.935 2.981-.935.895 0 1.709.202 2.442.605a4.421 4.421 0 011.738 1.727l-2.42 1.32c-.352-.748-.939-1.122-1.76-1.122-.367 0-.671.08-.913.242a.754.754 0 00-.363.66z" fill="#FFF"/><path d="M97.83 17.308c-1.672 0-3.062-.557-4.169-1.672C92.554 14.521 92 13.143 92 11.5c0-1.643.554-3.021 1.661-4.136 1.107-1.115 2.497-1.672 4.169-1.672 1.056 0 2.028.257 2.915.77a5.456 5.456 0 012.057 2.046L99.92 10.18c-.396-.821-1.107-1.232-2.134-1.232-.719 0-1.313.238-1.782.715-.47.477-.704 1.089-.704 1.837s.235 1.36.704 1.837c.47.477 1.063.715 1.782.715 1.041 0 1.753-.41 2.134-1.232l2.882 1.65a5.43 5.43 0 01-2.046 2.068c-.88.513-1.855.77-2.926.77zm9.502-9.35a2.704 2.704 0 011.243-1.617 3.923 3.923 0 012.057-.561v3.74a3.306 3.306 0 00-2.255.407c-.697.403-1.045 1.104-1.045 2.101V17h-3.3V6h3.3v1.958zM119.628 6h3.3v11h-3.3v-1.034c-.777.895-1.87 1.342-3.278 1.342-1.452 0-2.691-.561-3.718-1.683-1.027-1.122-1.54-2.497-1.54-4.125 0-1.628.513-3.003 1.54-4.125 1.027-1.122 2.266-1.683 3.718-1.683 1.408 0 2.5.447 3.278 1.342V6zm-4.51 7.458c.484.484 1.115.726 1.892.726.777 0 1.408-.242 1.892-.726s.726-1.137.726-1.958-.242-1.474-.726-1.958-1.115-.726-1.892-.726c-.777 0-1.408.242-1.892.726s-.726 1.137-.726 1.958.242 1.474.726 1.958zM137.248 6h3.52l-3.52 11h-3.08l-1.76-5.874-1.76 5.874h-3.08l-3.52-11h3.52l1.584 5.896L130.868 6h3.08l1.716 5.896L137.248 6zm4.64 11V.94h3.3V17h-3.3zm8.468-4.18c.381 1.027 1.261 1.54 2.64 1.54.895 0 1.599-.279 2.112-.836l2.64 1.518c-1.085 1.51-2.684 2.266-4.796 2.266-1.848 0-3.326-.55-4.433-1.65-1.107-1.1-1.661-2.486-1.661-4.158 0-1.657.546-3.04 1.639-4.147 1.093-1.107 2.497-1.661 4.213-1.661 1.599 0 2.93.554 3.993 1.661 1.063 1.107 1.595 2.49 1.595 4.147 0 .47-.044.91-.132 1.32h-7.81zm-.066-2.464h4.73c-.323-1.159-1.1-1.738-2.332-1.738-1.276 0-2.075.58-2.398 1.738zm12.978-2.398a2.704 2.704 0 011.243-1.617 3.923 3.923 0 012.057-.561v3.74a3.306 3.306 0 00-2.255.407c-.697.403-1.045 1.104-1.045 2.101V17h-3.3V6h3.3v1.958zm6.444 8.734c-.41.41-.902.616-1.474.616a2.011 2.011 0 01-1.474-.616 2.011 2.011 0 01-.616-1.474c0-.572.205-1.063.616-1.474.41-.41.902-.616 1.474-.616s1.063.205 1.474.616c.41.41.616.902.616 1.474s-.205 1.063-.616 1.474z" fill="#284097"/></g></svg>
