<?xml version="1.0" encoding="UTF-8"?>
<svg width="50px" height="50px" viewBox="0 0 50 50" version="1.1" xmlns="http://www.w3.org/2000/svg" xmlns:xlink="http://www.w3.org/1999/xlink">
    <title>logo</title>
    <defs>
        <circle id="path-1" cx="25" cy="25" r="25"></circle>
        <polygon id="path-3" points="0 0 9 0 9 18 0 18"></polygon>
    </defs>
    <g id="Page-1" stroke="none" stroke-width="1" fill="none" fill-rule="evenodd">
        <g id="mainpage" transform="translate(-40.000000, -327.000000)">
            <g id="filters" transform="translate(20.000000, 100.000000)">
                <g id="facebook" transform="translate(0.000000, 201.000000)">
                    <g id="logo" transform="translate(20.000000, 26.000000)">
                        <mask id="mask-2" fill="white">
                            <use xlink:href="#path-1"></use>
                        </mask>
                        <use id="Mask" fill="#1877F2" xlink:href="#path-1"></use>
                        <g id="Group-3" mask="url(#mask-2)">
                            <g transform="translate(20.000000, 16.000000)">
                                <mask id="mask-4" fill="white">
                                    <use xlink:href="#path-3"></use>
                                </mask>
                                <g id="Clip-2" stroke="none" fill="none"></g>
                                <path d="M6.68656287,3.42677075 L9,3.42677075 L9,0 L6.28049131,0 L6.28049131,0.0123576298 C2.98533459,0.129384384 2.30998644,1.98673614 2.25046215,3.93751159 L2.24368402,3.93751159 L2.24368402,5.64867258 L0,5.64867258 L0,9.00451053 L2.24368402,9.00451053 L2.24368402,18 L5.62535431,18 L5.62535431,9.00451053 L8.39526763,9.00451053 L8.93037013,5.64867258 L5.62634022,5.64867258 L5.62634022,4.61483327 C5.62634022,3.95555372 6.06383765,3.42677075 6.68656287,3.42677075" id="Fill-1" stroke="none" fill="#FFFFFF" fill-rule="evenodd" mask="url(#mask-4)"></path>
                            </g>
                        </g>
                    </g>
                </g>
            </g>
        </g>
    </g>
</svg>