<?xml version="1.0" encoding="UTF-8"?>
<svg width="50px" height="50px" viewBox="0 0 50 50" version="1.1" xmlns="http://www.w3.org/2000/svg" xmlns:xlink="http://www.w3.org/1999/xlink">
    <title>logo</title>
    <defs>
        <circle id="path-1" cx="25" cy="25" r="25"></circle>
    </defs>
    <g id="Page-1" stroke="none" stroke-width="1" fill="none" fill-rule="evenodd">
        <g id="mainpage" transform="translate(-40.000000, -125.000000)">
            <g id="filters" transform="translate(20.000000, 100.000000)">
                <g id="reddit" transform="translate(0.000000, 25.000000)">
                    <g id="logo" transform="translate(20.000000, 0.000000)">
                        <mask id="mask-2" fill="white">
                            <use xlink:href="#path-1"></use>
                        </mask>
                        <use id="Mask" fill="#FE4404" xlink:href="#path-1"></use>
                        <g id="reddit" mask="url(#mask-2)">
                            <g transform="translate(13.000000, 13.000000)">
                                <path d="M24,11.1926719 C24,9.69951204 22.8257446,8.49168738 21.3740845,8.49168738 C20.6645508,8.49168738 20.0233154,8.78060097 19.5516357,9.25126274 C17.7577515,7.91743861 15.2832642,7.05785462 12.5277099,6.95784609 L13.7235718,1.16695489 L17.6317749,2.02296035 C17.6786499,3.04545842 18.4925537,3.86059411 19.4976196,3.86059411 C20.5349121,3.86059411 21.3742676,2.99724337 21.3742676,1.93029705 C21.3742676,0.863350741 20.5349121,0 19.4976196,0 C18.7591552,0 18.1287232,0.440904021 17.8225708,1.07805839 L13.4569702,0.122232674 C13.3344727,0.0962417723 13.2084961,0.118654249 13.1039429,0.188905072 C12.9995728,0.259344222 12.9274292,0.366698069 12.9023437,0.492697544 C12.9023437,0.492697544 11.5911255,6.91716465 11.5911255,6.95426762 C8.7852173,7.02828525 6.26385497,7.89163599 4.44122316,9.24391747 C3.96936037,8.7770225 3.33178711,8.49168738 2.62591552,8.49168738 C1.17425536,8.49168738 0,9.70309051 0,11.1926719 C0,12.2891876 0.637573219,13.2340896 1.55236819,13.6563479 C1.51281741,13.9232258 1.49121094,14.1972605 1.49121094,14.4752504 C1.49121094,18.6321034 6.19537355,22 11.998169,22 C17.8009643,22 22.505127,18.6321034 22.505127,14.4752504 C22.505127,14.2010273 22.4835205,13.930571 22.4439697,13.6638815 C23.3552857,13.2414348 24,12.2967212 24,11.1926719" id="Path" fill="#FFFFFF" fill-rule="nonzero"></path>
                                <g id="Group" stroke-width="1" fill="none" fill-rule="evenodd" transform="translate(6.000000, 12.000000)">
                                    <path d="M10.1297422,3.64577414 C9.09995136,3.64577414 8.26039639,2.82848009 8.26039639,1.82599432 C8.26039639,0.823508545 9.09995136,0.0062145 10.1297422,0.0062145 C11.1595331,0.0062145 11.999088,0.823508545 11.999088,1.82599432 C11.999088,2.82848009 11.1595331,3.64577414 10.1297422,3.64577414" id="Path" fill="#FE4404" fill-rule="nonzero"></path>
                                    <path d="M10.4598735,6.63227982 C9.18257538,7.87215909 6.73905642,7.96999291 6.0215224,7.96999291 C5.30398833,7.96999291 2.85700389,7.87215909 1.58317121,6.63227982 C1.39311773,6.44708809 1.39311773,6.15021309 1.58317121,5.96502132 C1.77340711,5.78000709 2.0783682,5.78000709 2.26860411,5.96502132 C3.07222763,6.74751418 4.79091684,7.02698864 6.0215224,7.02698864 C7.24866247,7.02698864 8.97081712,6.74751418 9.77462307,5.96502132 C9.96467654,5.78000709 10.2696376,5.78000709 10.4598735,5.96502132 C10.6464616,6.15021309 10.6464616,6.44708809 10.4598735,6.63227982" id="Path" fill="#FE4404" fill-rule="nonzero"></path>
                                    <path d="M0.0368433619,1.82617186 C0.0368433619,0.823686091 0.876398335,0.00639204545 1.90618921,0.00639204545 C2.93598005,0.00639204545 3.77553502,0.823686091 3.77553502,1.82617186 C3.77553502,2.82848009 2.93598005,3.64595173 1.90618921,3.64595173 C0.876398335,3.64577414 0.0368433619,2.82848009 0.0368433619,1.82617186" id="Path" fill="#FE4404" fill-rule="nonzero"></path>
                                </g>
                            </g>
                        </g>
                    </g>
                </g>
            </g>
        </g>
    </g>
</svg>