<?xml version="1.0" encoding="UTF-8"?>
<svg width="50px" height="50px" viewBox="0 0 50 50" version="1.1" xmlns="http://www.w3.org/2000/svg" xmlns:xlink="http://www.w3.org/1999/xlink">
    <title>logo</title>
    <defs>
        <circle id="path-1" cx="25" cy="25" r="25"></circle>
    </defs>
    <g id="Page-1" stroke="none" stroke-width="1" fill="none" fill-rule="evenodd">
        <g id="mainpage" transform="translate(-40.000000, -225.000000)">
            <g id="filters" transform="translate(20.000000, 100.000000)">
                <g id="twitter" transform="translate(0.000000, 100.000000)">
                    <g id="logo" transform="translate(20.000000, 25.000000)">
                        <mask id="mask-2" fill="white">
                            <use xlink:href="#path-1"></use>
                        </mask>
                        <use id="Mask" fill="#1DA1F1" xlink:href="#path-1"></use>
                        <g id="twitter" mask="url(#mask-2)" fill="#FFFFFF" fill-rule="nonzero">
                            <g transform="translate(17.000000, 18.000000)" id="Path">
                                <path d="M6.3421376,14 C5.60700527,14 4.85034293,13.9400978 4.08914117,13.8200324 C2.74844553,13.6083518 1.39127815,12.9027065 1.00724026,12.6914174 L0,12.1372894 L1.09050682,11.7764406 C2.28256774,11.3820519 3.00771328,11.1373533 3.90535809,10.754188 C3.00654596,10.3162102 2.31382512,9.5283462 1.98036971,8.50987824 L1.72667902,7.73493425 L1.93471576,7.76690818 C1.73744402,7.56684266 1.58167587,7.3637755 1.46092635,7.17910966 C1.03149389,6.52279555 0.804132049,5.72083686 0.852509662,5.03359283 L0.90023879,4.35718083 L1.30269392,4.51404889 C1.13291831,4.19143834 1.0102233,3.84690279 0.938110816,3.48579302 C0.762369078,2.60513924 0.909447408,1.66954252 1.35236854,0.851401112 L1.70294415,0.203830871 L2.17180502,0.77048746 C3.65465045,2.56285536 5.5328176,3.62608682 7.76194947,3.93734336 C7.67090095,3.30582539 7.73912249,2.69636286 7.96492795,2.15006523 C8.22782726,1.5139795 8.69552082,0.974598671 9.31703708,0.590128304 C10.0072937,0.163243564 10.8443692,-0.0436082958 11.6740519,0.00768054387 C12.5543171,0.0621014915 13.3535206,0.393977977 13.9882661,0.96807336 C14.298246,0.887029211 14.5266455,0.800503831 14.8353284,0.683570554 C15.021057,0.613227871 15.2316877,0.533358267 15.4952355,0.442004144 L16.4664195,0.105298949 L15.8331006,1.92533407 C15.8748636,1.92181043 15.9179236,1.91880879 15.9629291,1.91685119 L17,1.86960808 L16.3870439,2.71254559 C16.3518955,2.76083279 16.3429463,2.7745359 16.3304952,2.79345925 C16.28108,2.86836964 16.2196028,2.96155083 15.3782472,4.09199286 C15.1676165,4.37506013 15.0624309,4.74373926 15.0820154,5.13029772 C15.1565921,6.59927201 14.9774782,7.92834399 14.5493427,9.08044999 C14.1444233,10.1704352 13.5169409,11.1056404 12.6845346,11.8600949 C11.6544673,12.7934731 10.3410085,13.4325604 8.78047349,13.7593471 C8.01499164,13.9196084 7.19296119,14 6.3421376,14 Z"></path>
                            </g>
                        </g>
                    </g>
                </g>
            </g>
        </g>
    </g>
</svg>